<?xml version="1.0" encoding="UTF-8"?>
<svg xmlns="http://www.w3.org/2000/svg" viewBox="0 0 956.69 306.53">
  <defs>
    <style>.cls-1{fill:#fff;}</style>
  </defs>
  <title>Asset 4prix</title>
  <g id="Layer_2" data-name="Layer 2">
    <g id="Layer_1-2" data-name="Layer 1">
      <path class="cls-1" d="M31.43,305.08H0V213.81H31.43c28,0,48.3,19.09,48.3,45.39C79.73,285.88,59.42,305.08,31.43,305.08ZM12.61,293H31.43c20.87,0,35.45-13.68,35.45-33.27v-.24c0-19.73-14.58-33.51-35.45-33.51H12.61Z"></path>
      <path class="cls-1" d="M164.39,305.08H151.77V213.81h12.62Z"></path>
      <path class="cls-1" d="M282.29,306.53c-27,0-45.87-19.26-45.87-46.85,0-23.38,16.89-47.33,45.15-47.33,13.3,0,22.88,3.45,33.08,11.89l2.49,2.06-8.32,9.55-2.38-2.07c-5.61-4.89-12.54-9.42-25.24-9.42-17.9,0-31.93,15.3-31.93,34.84,0,21.3,13.37,35.45,33.27,35.45a40.69,40.69,0,0,0,23.91-8.07V266.84h-28.4V254.71h40.78v37.34l-1.06.95A54.2,54.2,0,0,1,282.29,306.53Z"></path>
      <path class="cls-1" d="M404.83,305.08H392.22V213.81h12.61Z"></path>
      <path class="cls-1" d="M516.74,305.08H504.13V225.93H474.51V213.81h71.85v12.12H516.74Z"></path>
      <polygon class="cls-1" points="694.85 305.08 680.98 305.08 647.18 230.87 613.29 305.08 599.79 305.08 642.27 213.2 652.36 213.2 694.85 305.08"></polygon>
      <path class="cls-1" d="M823.41,305.08h-62.5V213.81h12.62V293h49.88Z"></path>
      <path class="cls-1" d="M925.37,306.29c-14,0-25.17-4.44-36.32-14.4l-2.32-2.07,8.3-9.52,2.38,2.19c9.2,8.49,17.14,11.79,28.33,11.79,10.8,0,18.33-5.64,18.33-13.72,0-6.28-1.58-11.23-21.49-15.24-21.86-4.42-31.18-12.5-31.18-27,0-14.77,13.09-25.72,30.46-25.72,12.35,0,21.36,3.19,31.1,11l2.46,2-8,10-2.47-2.13c-7.06-6.1-14.25-8.82-23.3-8.82-10.2,0-17.61,5.41-17.61,12.87,0,6.23,1.67,11.52,22.25,15.73,14.16,2.88,30.43,8.5,30.43,26.51C956.69,295.21,943.52,306.29,925.37,306.29Z"></path>
      <polygon class="cls-1" points="115.9 118.4 102.03 118.4 68.24 44.17 34.35 118.4 20.84 118.4 63.32 26.52 73.42 26.52 115.9 118.4"></polygon>
      <path class="cls-1" d="M213.23,119.86c-27,0-45.87-19.27-45.87-46.86,0-23.38,16.88-47.33,45.14-47.33,13.31,0,22.89,3.45,33.09,11.89l2.48,2.06-8.32,9.55-2.37-2.07c-5.61-4.89-12.55-9.42-25.24-9.42-17.91,0-31.93,15.31-31.93,34.84,0,21.3,13.37,35.45,33.26,35.45a40.7,40.7,0,0,0,23.92-8.07V80.16H209V68h40.77v37.35l-1.06.93A54.08,54.08,0,0,1,213.23,119.86Z"></path>
      <polygon class="cls-1" points="540.24 118.4 530.84 118.4 475.67 48.8 475.67 118.4 463.3 118.4 463.3 27.13 473.92 27.13 527.88 95.16 527.88 27.13 540.24 27.13 540.24 118.4"></polygon>
      <path class="cls-1" d="M647.5,119.86c-25.88,0-45.39-20.15-45.39-46.86s20-47.33,45.63-47.33c17.06,0,27,6.94,35.14,14.43l2.39,2.19-8.94,9.18-2.26-2.17c-5.94-5.75-13.73-11.62-26.45-11.62C629,37.68,615,52.66,615,72.52s14.4,35.33,32.78,35.33c10.46,0,18-3.46,27-12.33l2.2-2.16,8.76,8.52-2.29,2.26C675.57,111.91,665.14,119.86,647.5,119.86Z"></path>
      <path class="cls-1" d="M771.24,118.4H758.63V27.13h12.61Z"></path>
      <polygon class="cls-1" points="935.85 118.4 921.98 118.4 907.7 87.03 907.66 87.05 888.19 44.19 854.29 118.4 840.79 118.4 883.27 26.52 893.37 26.52 935.85 118.4"></polygon>
      <path class="cls-1" d="M392,118.4H324.68V27.13h66.74V39.26H337.29V66.33H386V78.46H337.29v27.81H392Z"></path>
      <path class="cls-1" d="M381.25,13.86l-8.61,0L357,7.61l-15.71,6.25H332.8L353.78,0h6.68l.16.1Z"></path>
    </g>
  </g>
</svg>
