<?xml version="1.0" encoding="UTF-8"?>
<!-- Generator: Adobe Illustrator 23.0.4, SVG Export Plug-In . SVG Version: 6.00 Build 0)  -->
<svg xmlns="http://www.w3.org/2000/svg" xmlns:xlink="http://www.w3.org/1999/xlink" version="1.1" id="Layer_1" x="0px" y="0px" viewBox="0 0 617 140" style="enable-background:new 0 0 617 140;" xml:space="preserve">
<style type="text/css">
	.st0{fill:#FFFFFF;}
</style>
<g>
	<g>
		<polygon class="st0" points="94.8,83.15 91.68,83.15 84.08,66.46 76.45,83.15 73.41,83.15 82.97,62.48 85.24,62.48   "></polygon>
	</g>
	<g>
		<path class="st0" d="M116.7,83.48c-6.08,0-10.32-4.33-10.32-10.54c0-5.26,3.8-10.65,10.16-10.65c2.99,0,5.15,0.78,7.44,2.67    l0.56,0.46l-1.87,2.15l-0.53-0.47c-1.26-1.1-2.82-2.12-5.68-2.12c-4.03,0-7.18,3.44-7.18,7.84c0,4.79,3.01,7.97,7.48,7.97    c2.23,0,4.19-0.9,5.38-1.82v-4.44h-6.39v-2.73h9.17v8.4l-0.24,0.21C122.5,82.37,119.59,83.48,116.7,83.48z"></path>
	</g>
	<g>
		<polygon class="st0" points="190.27,83.15 188.15,83.15 175.74,67.5 175.74,83.15 172.96,83.15 172.96,62.62 175.35,62.62     187.49,77.93 187.49,62.62 190.27,62.62   "></polygon>
	</g>
	<g>
		<path class="st0" d="M214.4,83.48c-5.82,0-10.21-4.53-10.21-10.54c0-5.99,4.51-10.65,10.27-10.65c3.84,0,6.07,1.56,7.91,3.25    l0.54,0.49l-2.01,2.07l-0.51-0.49c-1.34-1.29-3.09-2.61-5.95-2.61c-4.19,0-7.35,3.37-7.35,7.84c0,4.48,3.24,7.95,7.37,7.95    c2.35,0,4.06-0.78,6.08-2.77l0.49-0.49l1.97,1.92l-0.52,0.51C220.72,81.69,218.37,83.48,214.4,83.48z"></path>
	</g>
	<g>
		<path class="st0" d="M242.24,83.15h-2.84V62.62h2.84V83.15z"></path>
	</g>
	<g>
		<polygon class="st0" points="279.28,83.15 276.16,83.15 272.94,76.1 272.94,76.1 268.55,66.46 260.93,83.15 257.89,83.15     267.45,62.48 269.72,62.48   "></polygon>
	</g>
	<g>
		<path class="st0" d="M335.42,83.15h-7.07V62.62h7.07c6.3,0,10.87,4.29,10.87,10.21C346.28,78.84,341.71,83.15,335.42,83.15z     M331.18,80.43h4.23c4.7,0,7.98-3.08,7.98-7.48v-0.05c0-4.44-3.28-7.54-7.98-7.54h-4.23V80.43z"></path>
	</g>
	<g>
		<path class="st0" d="M365.33,83.15h-2.84V62.62h2.84V83.15z"></path>
	</g>
	<g>
		<path class="st0" d="M391.86,83.48c-6.08,0-10.32-4.33-10.32-10.54c0-5.26,3.8-10.65,10.16-10.65c2.99,0,5.15,0.78,7.44,2.67    l0.56,0.46l-1.87,2.15l-0.53-0.47c-1.26-1.1-2.82-2.12-5.68-2.12c-4.03,0-7.18,3.44-7.18,7.84c0,4.79,3.01,7.97,7.48,7.97    c2.22,0,4.19-0.9,5.38-1.82v-4.44h-6.39v-2.73h9.17v8.4l-0.24,0.21C397.66,82.37,394.75,83.48,391.86,83.48z"></path>
	</g>
	<g>
		<path class="st0" d="M419.43,83.15h-2.84V62.62h2.84V83.15z"></path>
	</g>
	<g>
		<path class="st0" d="M444.61,83.15h-2.84V65.35h-6.66v-2.73h16.16v2.73h-6.66V83.15z"></path>
	</g>
	<g>
		<polygon class="st0" points="484.68,83.15 481.56,83.15 473.95,66.46 466.33,83.15 463.29,83.15 472.85,62.48 475.12,62.48   "></polygon>
	</g>
	<g>
		<path class="st0" d="M513.6,83.15h-14.06V62.62h2.84v17.81h11.22V83.15z"></path>
	</g>
	<g>
		<path class="st0" d="M536.54,83.43c-3.14,0-5.66-1-8.17-3.24l-0.52-0.47l1.87-2.14l0.54,0.49c2.07,1.91,3.86,2.65,6.38,2.65    c2.43,0,4.12-1.27,4.12-3.09c0-1.41-0.36-2.53-4.84-3.43c-4.92-1-7.01-2.81-7.01-6.07c0-3.32,2.95-5.79,6.85-5.79    c2.78,0,4.81,0.72,7,2.48l0.55,0.44l-1.81,2.24l-0.55-0.48c-1.59-1.37-3.21-1.98-5.24-1.98c-2.29,0-3.96,1.22-3.96,2.9    c0,1.4,0.38,2.59,5,3.54c3.19,0.65,6.85,1.91,6.85,5.96C543.59,80.94,540.62,83.43,536.54,83.43z"></path>
	</g>
	<g>
		<g>
			<path class="st0" d="M156.92,83.15h-15.15V62.62h15.02v2.73h-12.18v6.09h10.95v2.73h-10.95v6.26h12.32V83.15z"></path>
		</g>
		<g>
			<path class="st0" d="M154.5,59.64l-1.94-0.01l-3.51-1.4l-3.53,1.41h-1.92l4.72-3.12h1.5l0.04,0.02L154.5,59.64z"></path>
		</g>
	</g>
</g>
</svg>
