<?xml version="1.0" encoding="UTF-8"?>
<svg xmlns="http://www.w3.org/2000/svg" width="1920" height="464" viewBox="0 0 1920 464" fill="none">
  <path d="M235.499 331.297L454.799 412.597V339.697L235.499 258.297L16.1992 339.697V412.597L235.499 331.297Z" fill="white"></path>
  <path d="M235.499 132.998L16.1992 51.5977V124.598L235.499 205.898L454.799 124.598V51.5977L235.499 132.998Z" fill="white"></path>
  <path d="M237.241 396.01L235.5 395.363L233.759 396.01L97.8553 446.468L28.9519 413.202L235.499 336.629L442.039 413.199L373.045 446.468L237.241 396.01Z" stroke="white" stroke-width="10"></path>
  <path d="M235.499 127.665L28.9613 51.0021L97.8543 17.8252L233.762 68.1869L235.5 68.8309L237.238 68.1865L373.046 17.825L442.03 51.0049L235.499 127.665Z" stroke="white" stroke-width="10"></path>
  <path d="M980.498 176.499C981.698 180.999 983.998 184.899 987.198 188.399C992.898 194.299 1002 199.999 1018.9 199.999C1043.6 199.999 1053.5 190.099 1053.5 180.199C1053.5 164.399 1029.5 160.699 1005.3 155.499C981.098 150.299 957.098 140.199 957.098 112.199C957.098 88.6992 978.098 67.6992 1017.7 67.6992C1045.4 67.6992 1061.5 78.7992 1070.6 89.9992C1076 96.6992 1079.8 104.099 1082 112.299H1052.3C1051.1 109.099 1049.1 105.899 1046.1 103.099C1041.2 98.3992 1032.5 93.6992 1017.7 93.6992C995.198 93.6992 986.798 101.099 986.798 110.999C986.798 122.099 1000.4 127.299 1017.2 130.799C1045.6 136.499 1083.2 143.399 1083.2 178.999C1083.2 203.699 1061.2 225.999 1018.9 225.999C987.498 225.999 969.898 213.899 960.498 201.299C955.098 194.099 951.298 185.699 949.598 176.599H980.498V176.499Z" fill="white"></path>
  <path d="M1090.6 72.6992H1225.4V99.8992H1172.2V221.099H1143.8V99.8992H1090.6V72.6992Z" fill="white"></path>
  <path d="M1326.8 157.999L1310.7 99.8992H1283.5L1267.4 157.999H1326.8ZM1263.5 72.6992H1330.8L1372.6 221.099H1344.2L1334.3 185.199H1260L1250.1 221.099H1221.7L1263.5 72.6992Z" fill="white"></path>
  <path d="M1368.8 72.6992H1503.6V99.8992H1450.5V221.099H1422V99.8992H1368.8V72.6992Z" fill="white"></path>
  <path d="M1551.8 72.6992H1523.4V221.099H1551.8V72.6992Z" fill="white"></path>
  <path d="M1661.9 198.799C1692.8 198.799 1715.1 176.499 1715.1 146.899C1715.1 117.299 1692.8 94.9992 1661.9 94.9992C1631 94.9992 1608.7 117.299 1608.7 146.899C1608.7 176.499 1631 198.799 1661.9 198.799ZM1661.9 67.6992C1710.1 67.6992 1744.8 102.299 1744.8 146.899C1744.8 191.499 1710.2 226.099 1661.9 226.099C1613.7 226.099 1579 191.499 1579 146.899C1579 102.299 1613.7 67.6992 1661.9 67.6992Z" fill="white"></path>
  <path d="M1772 72.6992H1810.3L1878.3 183.999H1880.8L1878.3 164.199V72.6992H1906.8V221.099H1868.5L1800.4 109.799H1798L1800.4 129.499V221.099H1772V72.6992Z" fill="white"></path>
  <path d="M648.3 142.599H615.2V106.699H648.3C659.9 106.699 668.6 114.399 668.6 124.599C668.6 134.799 659.8 142.599 648.3 142.599ZM689.2 170.099C694.1 167.699 698.7 164.299 702.9 159.899C712.2 150.299 716.9 138.399 716.9 124.599C716.9 91.0992 690.6 67.6992 653 67.6992H568V225.999H615.2V180.399H644L669.7 225.999H717.2L686.5 171.399L689.2 170.099Z" fill="white"></path>
  <path d="M788.298 185.799V107.799H806.198C830.998 107.799 846.398 122.699 846.398 146.799C846.398 170.799 830.998 185.799 806.198 185.799H788.298ZM895.898 146.899C895.898 100.999 858.698 67.6992 807.398 67.6992H741.098V225.999H807.398C858.698 225.999 895.898 192.699 895.898 146.899Z" fill="white"></path>
  <path d="M568 278H622.6C651.2 278 669.7 296.5 669.7 319.2C669.7 341.9 651.2 360.4 622.6 360.4H593.2V395.7H568V278ZM621.8 336.8C636.1 336.8 643.7 329.2 643.7 319.1C643.7 309 636.1 301.4 621.8 301.4H593.2V336.7H621.8V336.8Z" fill="white"></path>
  <path d="M708.799 278H761.799L792.899 395.7H766.799L760.099 369.6H710.499L703.799 395.7H677.699L708.799 278ZM754.199 346.1L742.399 301.5H728.099L716.299 346.1H754.199Z" fill="white"></path>
  <path d="M810.199 278H865.699C894.499 278 911.899 295.7 911.899 317.5C911.899 335.8 900.099 347.9 884.999 353.7L911.899 395.7H883.299L858.999 357H835.499V395.7H810.299V278H810.199ZM864.799 333.5C879.099 333.5 885.799 326.9 885.799 317.5C885.799 308.1 879.099 301.5 864.799 301.5H835.399V333.5H864.799Z" fill="white"></path>
  <path d="M925 278H1025.9V301.5H988.1V395.7H962.9V301.5H925V278Z" fill="white"></path>
  <path d="M1044 278H1076.8L1123 361.2H1124.7L1123 346.9V278H1148.2V395.7H1115.4L1069.2 312.5H1067.5L1069.2 326.8V395.7H1044V278Z" fill="white"></path>
  <path d="M1175.7 278H1264V301.5H1200.9V325H1251.3V346.9H1200.9V372.1H1264V395.6H1175.7V278Z" fill="white"></path>
  <path d="M1287.1 278H1342.6C1371.4 278 1388.8 295.7 1388.8 317.5C1388.8 335.8 1377 347.9 1361.9 353.7L1388.8 395.7H1360.2L1335.8 357H1312.3V395.7H1287.1V278ZM1341.8 333.5C1356.1 333.5 1362.8 326.9 1362.8 317.5C1362.8 308.1 1356.1 301.5 1341.8 301.5H1312.4V333.5H1341.8Z" fill="white"></path>
  <path d="M1430.5 358.698C1431.5 362.098 1433.2 365.098 1435.4 367.598C1439.3 372.098 1446 376.298 1457.4 376.298C1473.4 376.298 1479.3 370.398 1479.3 362.898C1479.3 352.498 1462 349.098 1444.5 344.598C1426.8 340.398 1409.5 331.798 1409.5 310.798C1409.5 291.498 1426.3 274.598 1454.9 274.598C1476.8 274.598 1488.9 283.798 1495.6 292.798C1499.5 298.198 1502.2 304.198 1503.7 310.798H1477.6C1476.9 308.298 1475.6 306.098 1473.7 304.098C1470.5 300.698 1465 297.398 1454.9 297.398C1441.4 297.398 1435.6 303.298 1435.6 309.998C1435.6 317.898 1445.4 321.898 1457.8 324.798C1478 329.698 1505.4 335.598 1505.4 362.098C1505.4 381.798 1489.1 399.098 1457.5 399.098C1434.5 399.098 1420.7 389.198 1413.6 378.898C1409.2 372.998 1406.2 366.298 1404.5 358.698H1430.5Z" fill="white"></path>
</svg>
